{
  "accessors": [
    {
      "bufferView": 2,
      "componentType": 5126,
      "count": 340,
      "max": [
        0.15613093972206116,
        0.1556943655014038,
        0.3057246208190918
      ],
      "min": [
        -0.15438708662986755,
        -0.1556943655014038,
        -2.6297173500061035
      ],
      "type": "VEC3"
    },
    {
      "bufferView": 2,
      "byteOffset": 4080,
      "componentType": 5126,
      "count": 340,
      "max": [
        1.0,
        0.9972038865089417,
        1.0
      ],
      "min": [
        -0.9888308644294739,
        -0.9972038865089417,
        -1.0
      ],
      "type": "VEC3"
    },
    {
      "bufferView": 1,
      "componentType": 5126,
      "count": 340,
      "max": [
        1.0,
        1.0
      ],
      "min": [
        0.0,
        0.0
      ],
      "type": "VEC2"
    },
    {
      "bufferView": 0,
      "componentType": 5125,
      "count": 1764,
      "type": "SCALAR"
    },
    {
      "bufferView": 2,
      "byteOffset": 8160,
      "componentType": 5126,
      "count": 21277,
      "max": [
        182.7657470703125,
        25.475862503051758,
        -0.18930795788764954
      ],
      "min": [
        180.43936157226563,
        23.222309112548828,
        -2.895468235015869
      ],
      "type": "VEC3"
    },
    {
      "bufferView": 2,
      "byteOffset": 263484,
      "componentType": 5126,
      "count": 21277,
      "max": [
        0.9999420642852783,
        0.9999995231628418,
        0.9999954700469971
      ],
      "min": [
        -0.9999861121177673,
        -0.9999898672103882,
        -0.9999955892562866
      ],
      "type": "VEC3"
    },
    {
      "bufferView": 1,
      "byteOffset": 2720,
      "componentType": 5126,
      "count": 21277,
      "max": [
        0.9999993443489075,
        0.9999993443489075
      ],
      "min": [
        0.0,
        0.0
      ],
      "type": "VEC2"
    },
    {
      "bufferView": 0,
      "byteOffset": 7056,
      "componentType": 5125,
      "count": 122400,
      "type": "SCALAR"
    }
  ],
  "asset": {
    "extras": {
      "author": "remi136 (https://sketchfab.com/rahmaahmed1306)",
      "license": "CC-BY-4.0 (http://creativecommons.org/licenses/by/4.0/)",
      "source": "https://sketchfab.com/3d-models/ghost-489398d0f95645b99685e09e10490d56",
      "title": "ghost"
    },
    "generator": "Sketchfab-15.36.0",
    "version": "2.0"
  },
  "bufferViews": [
    {
      "buffer": 0,
      "byteLength": 496656,
      "name": "floatBufferViews",
      "target": 34963
    },
    {
      "buffer": 0,
      "byteLength": 172936,
      "byteOffset": 496656,
      "byteStride": 8,
      "name": "floatBufferViews",
      "target": 34962
    },
    {
      "buffer": 0,
      "byteLength": 518808,
      "byteOffset": 669592,
      "byteStride": 12,
      "name": "floatBufferViews",
      "target": 34962
    }
  ],
  "buffers": [
    {
      "byteLength": 1188400,
      "uri": "scene.bin"
    }
  ],
  "extensionsUsed": [
    "KHR_texture_transform",
    "KHR_materials_specular"
  ],
  "images": [
    {
      "uri": "textures/Material_2_baseColor.jpeg"
    }
  ],
  "materials": [
    {
      "doubleSided": true,
      "name": "OilTank002__0",
      "pbrMetallicRoughness": {
        "baseColorFactor": [
          0.17792153346061756,
          0.17792153346061756,
          0.17792153346061756,
          1.0
        ],
        "metallicFactor": 0.0,
        "roughnessFactor": 0.6
      }
    },
    {
      "doubleSided": true,
      "extensions": {
        "KHR_materials_specular": {
          "specularColorFactor": [
            1.0,
            1.0,
            1.0
          ],
          "specularFactor": 0.0
        }
      },
      "name": "Material_2",
      "pbrMetallicRoughness": {
        "baseColorTexture": {
          "extensions": {
            "KHR_texture_transform": {
              "offset": [
                -1,
                0.20182704343889002
              ],
              "scale": [
                0.9999995203814356,
                0.9999995203814356
              ]
            }
          },
          "index": 0
        },
        "metallicFactor": 0.0,
        "roughnessFactor": 0.10819080591483707
      }
    }
  ],
  "meshes": [
    {
      "name": "OilTank002__0",
      "primitives": [
        {
          "attributes": {
            "NORMAL": 1,
            "POSITION": 0,
            "TEXCOORD_0": 2
          },
          "indices": 3,
          "material": 0,
          "mode": 4
        }
      ]
    },
    {
      "name": "Plane003_Material #2_0",
      "primitives": [
        {
          "attributes": {
            "NORMAL": 5,
            "POSITION": 4,
            "TEXCOORD_0": 6
          },
          "indices": 7,
          "material": 1,
          "mode": 4
        }
      ]
    }
  ],
  "nodes": [
    {
      "children": [
        1
      ],
      "matrix": [
        1.0,
        0.0,
        0.0,
        0.0,
        0.0,
        -5.053215392444312e-16,
        1.0,
        0.0,
        0.0,
        -1.0,
        -5.053215392444312e-16,
        0.0,
        0.0,
        0.0,
        0.0,
        1.0
      ],
      "name": "Sketchfab_model"
    },
    {
      "children": [
        2
      ],
      "matrix": [
        1.0,
        0.0,
        0.0,
        0.0,
        0.0,
        -1.0,
        0.0,
        0.0,
        0.0,
        0.0,
        -1.0,
        0.0,
        0.0,
        0.0,
        0.0,
        1.0
      ],
      "name": "888bfd3a3dfb4ff9bd6b5d89723fda6d.fbx"
    },
    {
      "children": [
        3
      ],
      "name": "RootNode"
    },
    {
      "children": [
        4,
        6
      ],
      "matrix": [
        1.0,
        0.0,
        0.0,
        0.0,
        0.0,
        1.0,
        0.0,
        0.0,
        0.0,
        0.0,
        1.0,
        0.0,
        1.9896221160888672,
        -0.06641155481338501,
        2.2815463542938232,
        1.0
      ],
      "name": "Group001"
    },
    {
      "children": [
        5
      ],
      "matrix": [
        1.0,
        0.0,
        0.0,
        0.0,
        0.0,
        1.0,
        0.0,
        0.0,
        0.0,
        0.0,
        0.4298039972782135,
        0.0,
        0.0022830963134765625,
        -0.03672373294830322,
        1.056227684020996,
        1.0
      ],
      "name": "OilTank002"
    },
    {
      "mesh": 0,
      "name": "OilTank002__0"
    },
    {
      "children": [
        7
      ],
      "matrix": [
        0.5528069734573364,
        0.0,
        0.0,
        0.0,
        0.0,
        0.5528069734573364,
        0.0,
        0.0,
        0.0,
        0.0,
        1.4266250133514404,
        0.0,
        -100.39088439941406,
        -13.460794448852539,
        2.1948158740997314,
        1.0
      ],
      "name": "Plane003"
    },
    {
      "mesh": 1,
      "name": "Plane003_Material #2_0"
    }
  ],
  "samplers": [
    {
      "magFilter": 9729,
      "minFilter": 9987,
      "wrapS": 10497,
      "wrapT": 10497
    }
  ],
  "scene": 0,
  "scenes": [
    {
      "name": "Sketchfab_Scene",
      "nodes": [
        0
      ]
    }
  ],
  "textures": [
    {
      "sampler": 0,
      "source": 0
    }
  ]
}
